<svg width="269" height="164" viewBox="0 0 269 164" fill="none" xmlns="http://www.w3.org/2000/svg">
<path d="M153.997 66.6536C148.387 67.6602 142.673 68.0517 136.991 67.9239C131.305 67.82 125.639 67.2128 120.137 66.0104C114.89 64.8679 109.796 63.0783 105.202 60.6376C105.406 59.6669 105.634 58.7002 105.886 57.7454C106.589 55.085 107.477 52.4765 108.497 49.9279C110.524 44.8187 113.099 39.9292 116.082 35.3273C119.045 30.7095 122.408 26.3593 126.138 22.4045C129.705 18.6216 133.712 15.2701 137.998 12.5697C138.698 13.1609 139.386 13.7681 140.062 14.3912C142.101 16.2687 144.024 18.2701 145.823 20.3753C149.442 24.5657 152.637 29.1196 155.376 33.9172C158.147 38.6948 160.482 43.7081 162.266 48.8733C163.929 53.6868 165.013 58.6882 165.357 63.6176C161.682 64.9838 157.855 65.9625 153.997 66.6536ZM182.97 50.0477C182.806 49.9758 182.61 50.0517 182.538 50.2155V50.2195C181.391 52.836 179.504 55.041 177.364 56.8906C175.545 58.4565 173.522 59.7747 171.402 60.9132C170.491 56.0916 168.979 51.4778 167.2 47.0317C165.005 41.6149 162.266 36.4658 159.103 31.6203C155.916 26.7907 152.285 22.2647 148.239 18.1422C146.211 16.089 144.064 14.1515 141.809 12.3539C141.309 11.9545 140.805 11.567 140.293 11.1835L141.125 10.7121L141.993 10.2607C143.136 9.64156 144.308 9.11826 145.472 8.60294L146.351 8.25541L146.791 8.07964C146.939 8.02372 147.087 7.97578 147.235 7.92385L148.119 7.61227L149.002 7.34462L149.446 7.20881L149.886 7.10095L150.774 6.88524C151.362 6.78137 151.953 6.64555 152.533 6.59363C153.121 6.49775 153.693 6.48577 154.272 6.44582L155.128 6.46181C155.196 6.46181 155.272 6.45781 155.34 6.4658L155.548 6.48576C155.688 6.50175 155.828 6.51373 155.968 6.52571C157.079 6.63357 158.155 6.88524 159.171 7.29269C160.182 7.71613 161.122 8.29935 162.002 9.0144L162.646 9.58164C162.841 9.79337 163.033 10.0051 163.241 10.2168C163.349 10.3167 163.437 10.4325 163.529 10.5524L163.805 10.8999C163.897 11.0157 163.997 11.1276 164.085 11.2514L164.337 11.6309L164.589 12.0064L164.717 12.1982L164.833 12.3979L165.301 13.2088C165.441 13.4884 165.572 13.78 165.708 14.0637C165.776 14.2075 165.852 14.3473 165.916 14.4951L166.096 14.9425C166.604 16.1289 166.976 17.4032 167.316 18.7015C167.548 19.6402 167.736 20.599 167.9 21.5697C166.568 22.049 165.616 23.3153 165.616 24.8093C165.616 26.7108 167.16 28.2528 169.063 28.2528C170.963 28.2528 172.51 26.7108 172.51 24.8093C172.51 23.2954 171.53 22.0131 170.171 21.5537C170.199 21.2141 170.215 20.8786 170.243 20.539C170.307 19.808 170.291 19.073 170.303 18.33C170.259 16.8519 170.155 15.346 169.835 13.848L169.727 13.2847C169.691 13.093 169.631 12.9052 169.583 12.7215C169.479 12.35 169.383 11.9705 169.271 11.599L168.879 10.4844L168.779 10.2048L168.659 9.93317L168.407 9.3859C167.732 7.93583 166.88 6.50574 165.732 5.27139C164.605 4.01706 163.253 2.93849 161.758 2.09162C158.727 0.425842 155.216 -0.173355 151.973 0.0423584C151.154 0.0743179 150.362 0.198151 149.558 0.298019C149.162 0.365929 148.774 0.449814 148.383 0.525711L147.799 0.645554L147.223 0.793358C146.843 0.893227 146.459 0.989098 146.083 1.10094L144.968 1.46845C144.788 1.52837 144.6 1.5883 144.416 1.65221L143.876 1.86393L142.797 2.29136C141.393 2.91054 140.018 3.58564 138.718 4.35262C138.39 4.54037 138.066 4.73211 137.742 4.92785L136.799 5.53903C136.163 5.9385 135.555 6.37791 134.943 6.80534C134.735 6.95714 134.531 7.10894 134.328 7.26473C131.924 5.91454 129.405 4.75208 126.774 3.9132C124.011 3.07032 121.112 2.55901 118.221 2.74676C118.057 2.75874 117.921 2.89855 117.917 3.07032C117.913 3.25008 118.057 3.40188 118.241 3.40588C121.024 3.46579 123.739 4.19283 126.302 5.22345C128.518 6.13024 130.629 7.27671 132.636 8.57898C128.782 11.6868 125.367 15.2101 122.216 18.8972C118.465 23.3153 115.178 28.077 112.331 33.0743C109.524 38.0916 107.169 43.3566 105.398 48.8173C104.306 52.2567 103.431 55.7761 102.895 59.3473C101.127 58.2927 99.4679 57.1223 97.9445 55.8719C96.9688 55.041 96.0212 54.1862 95.2214 53.2554C95.1175 53.1396 95.0095 53.0317 94.9096 52.9119L94.6297 52.5563L94.3458 52.2048L94.2018 52.0251L94.0739 51.8453L93.558 51.1143L93.1142 50.3633C92.5384 49.3566 92.1145 48.302 91.8586 47.2195C91.5827 46.1409 91.5148 45.0144 91.6147 43.8839C91.7147 42.7494 92.0186 41.6109 92.4704 40.4765C92.9303 39.35 93.562 38.2434 94.3098 37.1729C95.8092 35.0357 97.7885 33.0863 99.9638 31.3087C100.723 30.6895 101.515 30.0903 102.323 29.5071C102.871 29.8786 103.53 30.0943 104.242 30.0943C106.146 30.0943 107.689 28.5523 107.689 26.6509C107.689 24.7494 106.146 23.2075 104.242 23.2075C102.339 23.2075 100.795 24.7494 100.795 26.6509C100.795 26.9864 100.847 27.31 100.935 27.6136C100.06 27.9691 99.196 28.3526 98.3443 28.7761C95.6293 30.1382 93.0142 31.8719 90.755 34.1808C90.4791 34.4725 90.1912 34.7601 89.9313 35.0757C89.6634 35.3832 89.3955 35.6948 89.1436 36.0224C88.6398 36.6775 88.1719 37.3726 87.7481 38.1076C86.8924 39.5697 86.2446 41.2115 85.8728 42.9492C85.5089 44.6868 85.4529 46.5124 85.7048 48.294C85.9607 50.0717 86.5125 51.7894 87.2603 53.3713C88.008 54.9611 88.9917 56.3673 90.0553 57.6655C91.1189 58.9718 92.3185 60.0983 93.562 61.1409L94.5097 61.8999C94.8296 62.1436 95.1615 62.3673 95.4854 62.603C96.1291 63.0863 96.8089 63.4818 97.4766 63.9172C97.8125 64.1289 98.1604 64.3087 98.5043 64.5044C98.8442 64.6922 99.184 64.8999 99.5359 65.0717C100.236 65.4192 100.923 65.7947 101.635 66.1103C101.859 66.2101 102.087 66.31 102.315 66.4099C102.307 67.6123 102.355 68.8187 102.443 70.0171C102.575 71.4552 102.779 72.8813 103.091 74.2874C103.738 77.0876 104.818 79.832 106.561 82.1289C106.661 82.2647 106.853 82.3007 106.997 82.2128C107.149 82.1169 107.197 81.9132 107.101 81.7574C105.634 79.4205 104.846 76.7361 104.458 74.0357C104.274 72.6775 104.186 71.3113 104.174 69.9412C104.178 69.0344 104.206 68.1236 104.266 67.2168C109.125 69.1223 114.131 70.3326 119.145 71.1755C125.079 72.1622 131.073 72.4898 137.031 72.298C142.98 72.0623 148.906 71.2794 154.688 69.8693C157.571 69.1502 160.418 68.2594 163.189 67.1848C163.957 66.8892 164.725 66.5777 165.481 66.2501C165.524 68.3433 165.409 70.4046 165.149 72.3899C165.129 72.5457 165.113 72.7015 165.089 72.8573L165.005 73.3127C164.945 73.6163 164.905 73.9239 164.845 74.2235C164.705 74.8187 164.581 75.4219 164.405 75.9891C164.261 76.5803 164.037 77.1196 163.857 77.6789C163.621 78.2062 163.417 78.7574 163.137 79.2448C162.122 81.286 160.618 82.8879 158.707 83.9904C158.227 84.2661 157.719 84.4938 157.187 84.6975C156.656 84.8932 156.104 85.053 155.532 85.1888C154.38 85.4325 153.161 85.5484 151.901 85.5284C149.374 85.4964 146.739 84.9691 144.132 84.1662C142.865 83.7787 141.597 83.3193 140.337 82.812C140.413 82.5364 140.457 82.2448 140.457 81.9412C140.457 80.0437 138.91 78.4978 137.011 78.4978C135.107 78.4978 133.564 80.0437 133.564 81.9412C133.564 83.8426 135.107 85.3846 137.011 85.3846C137.894 85.3846 138.702 85.049 139.31 84.5018C140.453 85.3726 141.653 86.1795 142.917 86.9145C145.476 88.3966 148.303 89.583 151.413 90.1502C152.185 90.298 152.985 90.3779 153.789 90.4418C154.596 90.4858 155.416 90.4778 156.244 90.4179C157.071 90.346 157.907 90.2381 158.735 90.0384C159.563 89.8347 160.382 89.583 161.182 89.2474C161.978 88.9119 162.761 88.5244 163.485 88.037L164.037 87.6855C164.229 87.5737 164.389 87.4299 164.565 87.298L165.085 86.8986C165.253 86.7627 165.429 86.6309 165.58 86.4751C165.9 86.1795 166.212 85.8759 166.524 85.5723L167.376 84.5936C167.524 84.4339 167.652 84.2621 167.776 84.0903L168.152 83.571C168.276 83.3952 168.407 83.2235 168.523 83.0477L168.855 82.5084C169.315 81.7854 169.663 81.0344 170.035 80.2834C170.347 79.5244 170.671 78.7574 170.903 77.9825C171.174 77.2115 171.342 76.4285 171.538 75.6496C171.626 75.2581 171.694 74.8666 171.762 74.4791L171.866 73.8919C171.898 73.6962 171.918 73.5004 171.946 73.3047L172.082 72.1382L172.162 70.9718L172.202 70.3926C172.214 70.1968 172.206 70.0051 172.214 69.8133L172.222 68.6549C172.23 68.2714 172.198 67.8919 172.186 67.5084C172.166 67.1289 172.158 66.7454 172.126 66.3659L172.03 65.2315L171.978 64.6642L171.91 64.105C171.862 63.7334 171.814 63.3699 171.758 63.0024C174.117 61.5444 176.357 59.8746 178.32 57.9052C179.364 56.8386 180.323 55.6882 181.155 54.4458C181.983 53.2035 182.674 51.8613 183.15 50.4552C183.206 50.2954 183.126 50.1156 182.97 50.0477Z" fill="#FE9D02"/>
<path d="M125.05 54.5624C124.346 56.8673 125.706 60.6942 126.765 63.135C127.853 63.2868 128.957 63.4106 130.068 63.5225L125.77 54.5105C125.618 54.1949 125.15 54.2269 125.05 54.5624Z" fill="#FE9D02"/>
<path d="M117.215 46.107C116.931 45.5317 116.703 44.9525 116.519 44.3773C116.371 43.9179 116.259 43.4545 116.171 42.9911C114.66 45.7634 113.332 48.5797 112.213 51.4119C111.245 53.8207 110.445 56.1975 109.83 58.4625C113.276 60.0204 117.019 61.2428 120.99 62.1096C122.449 62.4252 123.937 62.7008 125.448 62.9365C123.077 58.087 118.806 49.3546 117.215 46.107Z" fill="#FE9D02"/>
<path d="M145.342 46.7877C145.342 45.9967 144.698 45.3536 143.911 45.3536C143.119 45.3536 142.475 45.9967 142.475 46.7877C142.475 47.5786 143.119 48.2178 143.911 48.2178C144.698 48.2178 145.342 47.5786 145.342 46.7877Z" fill="#FE9D02"/>
<path d="M158.487 50.1765C156.823 45.3669 154.616 40.5693 151.917 35.9235L151.905 35.8995C149.254 31.2577 146.187 26.9115 142.784 22.9727C141.161 21.0753 139.442 19.2777 137.654 17.6119C134.623 19.769 131.736 22.2936 129.049 25.1458C127.746 26.524 126.482 27.9701 125.255 29.4721C131.5 28.2177 136.747 33.2031 137.706 36.247C139.022 40.4255 141.409 40.5213 143.44 40.9328C146.239 41.528 147.403 43.1898 147.887 44.4721C148.17 45.2191 148.21 46.03 148.063 46.813C147.599 49.2577 148.862 50.1805 149.29 50.8036C151.217 53.1725 151.537 58.3176 151.537 58.4255C151.537 58.5293 151.301 58.6092 151.217 58.2457C149.198 50.7317 146.875 50.4201 145.695 51.0913C144.516 51.7584 143.192 51.8822 143.192 51.8822C143.192 51.8822 136.703 51.3629 131.44 51.9221C130.773 51.994 130.137 52.2936 129.857 52.9008C128.322 56.2244 129.977 61.042 131.097 63.6185C133.06 63.7903 135.055 63.8942 137.078 63.9301C137.742 63.9461 138.414 63.9541 139.074 63.9541C143.944 63.9541 148.73 63.5387 153.289 62.7237C156.028 62.2324 158.627 61.6052 161.058 60.8582C160.586 57.3469 159.726 53.7677 158.487 50.1765Z" fill="#FE9D02"/>
<path d="M2.23781 153.087V117.63H4.59979L26.8227 139.849V117.63H33.9153V153.087H31.3172L9.3305 131.104V153.087H2.23781Z" fill="black"/>
<path d="M90.3784 153.087H61.9874L62.0077 150.725L78.5348 124.249H62.0077L61.9874 117.63H90.3784V120.228L73.7838 146.468H90.3784V153.087Z" fill="black"/>
<path d="M125.844 131.814H135.771C138.625 131.767 140.09 130.464 140.171 127.914C140.09 125.579 138.652 124.365 135.845 124.27H125.844V131.814ZM118.751 153.088V117.631H134.212C142.486 117.631 146.622 121.032 146.622 127.84C146.622 134.904 142.492 138.433 134.239 138.433H125.844V153.088H118.751Z" fill="black"/>
<path d="M173.155 153.087V117.63H175.517L190.883 135.119L206.277 117.63H208.645V153.087H201.546L201.526 132.521L190.883 144.343L180.248 132.521V153.087H173.155Z" fill="black"/>
<path d="M240.361 147.993C236.966 144.612 235.266 140.375 235.266 135.288C235.279 130.308 236.986 126.118 240.374 122.724C243.762 119.331 247.959 117.63 252.974 117.63C258.035 117.63 262.374 119.209 265.998 122.36L261.274 127.535C258.858 125.646 256.098 124.701 252.974 124.701C249.788 124.715 247.224 125.707 245.28 127.677C243.33 129.647 242.358 132.171 242.358 135.241C242.372 138.533 243.357 141.151 245.314 143.088C247.271 145.024 249.836 145.996 253.021 145.996C256.206 145.996 258.953 145.058 261.274 143.182L265.998 148.357C262.388 151.515 258.049 153.087 252.974 153.087C247.959 153.073 243.755 151.373 240.361 147.993Z" fill="black"/>
<path d="M0 163.997V157.79H0.41166L4.30556 161.683V157.79H5.54728V163.997H5.08838L1.24173 160.151V163.997H0Z" fill="black"/>
<path d="M6.81429 163.997V157.796L11.3763 157.79V158.95H8.05601V160.273H10.5462V161.426H8.05601V162.837H11.3628V163.997H6.81429Z" fill="black"/>
<path d="M16.3984 159.447L15.1567 163.994H13.915L12.2549 157.793H13.5776L14.6641 162.01L15.7776 157.793H17.0598L18.1328 162.01L19.2126 157.793H20.5353L18.8819 163.994H17.6402L16.3984 159.447Z" fill="black"/>
<path d="M29.2177 163.997H24.2508V163.585L27.1459 158.95H24.2508V157.79H29.2177V158.248L26.3158 162.837H29.2177V163.997Z" fill="black"/>
<path d="M30.4383 163.997V157.796L35.0003 157.79V158.95H31.68V160.273H34.1702V161.426H31.68V162.837H34.9868V163.997H30.4383Z" fill="black"/>
<path d="M39.0572 159.447L38.1124 161.801H39.975L39.0572 159.447ZM35.9191 163.994L38.4026 157.793H39.6443L42.121 163.994H40.8051L40.4339 163.043H37.6198L37.2486 163.994H35.9191Z" fill="black"/>
<path d="M44.3041 157.792V162.839H47.6176V163.999H43.0624V157.792H44.3041Z" fill="black"/>
<path d="M51.4447 159.447L50.4999 161.801H52.3625L51.4447 159.447ZM48.3067 163.994L50.7901 157.793H52.0319L54.5086 163.994H53.1926L52.8214 163.043H50.0073L49.6361 163.994H48.3067Z" fill="black"/>
<path d="M55.4386 163.997V157.79H55.8502L59.7441 161.683V157.79H60.9859V163.997H60.527L56.6803 160.151V163.997H55.4386Z" fill="black"/>
<path d="M64.6629 162.76C65.7629 162.76 66.3163 162.133 66.3163 160.891C66.3163 159.657 65.7629 159.029 64.6629 159.029H63.5156V162.76H64.6629ZM62.2672 163.995V157.788H64.6629C66.593 157.788 67.558 158.827 67.558 160.891C67.558 162.963 66.593 163.995 64.6629 163.995H62.2672Z" fill="black"/>
<path d="M73.03 160.275H74.7644C75.2638 160.268 75.5202 160.038 75.5337 159.593C75.5202 159.182 75.2706 158.972 74.7779 158.952H73.03V160.275ZM71.7883 163.999V157.792H74.4945C75.9454 157.792 76.6675 158.385 76.6675 159.58C76.6675 160.814 75.9454 161.435 74.5012 161.435H73.03V163.999H71.7883Z" fill="black"/>
<path d="M77.5802 163.997V157.79H78.8219V160.273H81.717V157.79H82.9588V163.99L81.717 163.997V161.433H78.8219V163.997H77.5802Z" fill="black"/>
<path d="M83.9328 157.792H85.3905L86.8279 159.816L88.2991 157.792H89.723L87.4488 160.895V163.999H86.207V160.895L83.9328 157.792Z" fill="black"/>
<path d="M94.004 157.999C94.3212 158.14 94.6181 158.343 94.8948 158.62L94.0648 159.449C93.7881 159.119 93.4034 158.95 92.904 158.95C92.4114 158.95 92.0942 159.065 91.9525 159.301C91.8175 159.537 91.8175 159.74 91.9525 159.902C92.0942 160.07 92.4114 160.192 92.904 160.273C93.4304 160.327 93.9096 160.502 94.3347 160.792C94.7599 161.082 94.9758 161.541 94.9758 162.175C94.9758 162.675 94.7464 163.1 94.2942 163.457C93.8353 163.815 93.3022 163.997 92.6948 163.997C92.1212 163.997 91.6353 163.916 91.2506 163.747C90.866 163.585 90.5353 163.363 90.2586 163.086L91.0887 162.256C91.3586 162.594 91.831 162.783 92.4924 162.843C93.0457 162.843 93.3899 162.722 93.5249 162.486C93.6599 162.256 93.6599 162.02 93.5249 161.784C93.3899 161.548 93.0457 161.406 92.4924 161.352C91.993 161.291 91.5408 161.143 91.1292 160.893C90.7108 160.644 90.5083 160.219 90.5083 159.611C90.5083 159.065 90.7445 158.626 91.2101 158.289C91.6825 157.958 92.1684 157.79 92.6611 157.79C93.2415 157.79 93.6869 157.857 94.004 157.999Z" fill="black"/>
<path d="M96.0851 157.789H97.321V163.997H96.0851V157.789Z" fill="black"/>
<path d="M99.1526 163.106C98.5587 162.513 98.2618 161.77 98.2618 160.88C98.2618 160.009 98.5587 159.281 99.1526 158.68C99.7464 158.087 100.482 157.79 101.359 157.79C102.243 157.79 103.006 158.066 103.64 158.62L102.81 159.524C102.392 159.193 101.906 159.031 101.359 159.031C100.806 159.031 100.354 159.207 100.016 159.551C99.6722 159.895 99.5035 160.333 99.5035 160.873C99.5035 161.453 99.679 161.905 100.023 162.25C100.361 162.587 100.813 162.756 101.366 162.756C101.926 162.756 102.405 162.594 102.81 162.263L103.64 163.174C103.006 163.72 102.25 163.997 101.359 163.997C100.482 163.997 99.7464 163.7 99.1526 163.106Z" fill="black"/>
<path d="M108.337 157.999C108.655 158.14 108.952 158.343 109.228 158.62L108.398 159.449C108.122 159.119 107.737 158.95 107.237 158.95C106.745 158.95 106.428 159.065 106.286 159.301C106.151 159.537 106.151 159.74 106.286 159.902C106.428 160.07 106.745 160.192 107.237 160.273C107.764 160.327 108.243 160.502 108.668 160.792C109.093 161.082 109.309 161.541 109.309 162.175C109.309 162.675 109.08 163.1 108.628 163.457C108.169 163.815 107.636 163.997 107.028 163.997C106.455 163.997 105.969 163.916 105.584 163.747C105.199 163.585 104.869 163.363 104.592 163.086L105.422 162.256C105.692 162.594 106.164 162.783 106.826 162.843C107.379 162.843 107.723 162.722 107.858 162.486C107.993 162.256 107.993 162.02 107.858 161.784C107.723 161.548 107.379 161.406 106.826 161.352C106.333 161.291 105.874 161.143 105.463 160.893C105.044 160.644 104.842 160.219 104.842 159.611C104.842 159.065 105.078 158.626 105.544 158.289C106.016 157.958 106.502 157.79 106.995 157.79C107.575 157.79 108.02 157.857 108.337 157.999Z" fill="black"/>
<path d="M116.124 159.447L115.179 161.801H117.041L116.124 159.447ZM112.986 163.994L115.469 157.793H116.711L119.187 163.994H117.871L117.5 163.043H114.686L114.315 163.994H112.986Z" fill="black"/>
<path d="M120.117 163.997V157.79H120.528L124.422 161.683V157.79H125.664V163.997H125.205L121.358 160.151V163.997H120.117Z" fill="black"/>
<path d="M129.34 162.76C130.44 162.76 130.994 162.133 130.994 160.891C130.994 159.657 130.44 159.029 129.34 159.029H128.193V162.76H129.34ZM126.951 163.995V157.788H129.34C131.271 157.788 132.236 158.827 132.236 160.891C132.236 162.963 131.271 163.995 129.34 163.995H126.951Z" fill="black"/>
<path d="M136.465 163.997V157.79H136.877L139.569 160.853L142.262 157.79H142.674V163.997H141.432V160.401L139.569 162.465L137.707 160.401V163.997H136.465Z" fill="black"/>
<path d="M146.722 159.447L145.777 161.801H147.64L146.722 159.447ZM143.584 163.994L146.068 157.793H147.309L149.786 163.994H148.47L148.099 163.043H145.285L144.914 163.994H143.584Z" fill="black"/>
<path d="M155.781 157.792V158.952H153.709V163.999H152.474V158.952H150.402V157.792H155.781Z" fill="black"/>
<path d="M156.703 163.997V157.79H157.945V160.273H160.84V157.79H162.082V163.99L160.84 163.997V161.433H157.945V163.997H156.703Z" fill="black"/>
<path d="M163.402 163.997V157.796L167.964 157.79V158.95H164.644V160.273H167.134V161.426H164.644V162.837H167.951V163.997H163.402Z" fill="black"/>
<path d="M169.212 163.997V157.79H169.624L172.316 160.853L175.009 157.79H175.421V163.997H174.179V160.401L172.316 162.465L170.454 160.401V163.997H169.212Z" fill="black"/>
<path d="M179.47 159.447L178.525 161.801H180.388L179.47 159.447ZM176.332 163.994L178.816 157.793H180.057L182.534 163.994H181.218L180.847 163.043H178.033L177.662 163.994H176.332Z" fill="black"/>
<path d="M188.531 157.792V158.952H186.459V163.999H185.217V158.952H183.152V157.792H188.531Z" fill="black"/>
<path d="M189.452 157.789H190.687V163.997H189.452V157.789Z" fill="black"/>
<path d="M192.52 163.106C191.926 162.513 191.629 161.77 191.629 160.88C191.629 160.009 191.926 159.281 192.52 158.68C193.114 158.087 193.849 157.79 194.726 157.79C195.61 157.79 196.373 158.066 197.007 158.62L196.177 159.524C195.759 159.193 195.273 159.031 194.726 159.031C194.166 159.031 193.721 159.207 193.377 159.551C193.039 159.895 192.871 160.333 192.871 160.873C192.871 161.453 193.046 161.905 193.383 162.25C193.728 162.587 194.18 162.756 194.733 162.756C195.293 162.756 195.772 162.594 196.177 162.263L197.007 163.174C196.373 163.72 195.617 163.997 194.726 163.997C193.849 163.997 193.114 163.7 192.52 163.106Z" fill="black"/>
<path d="M201.702 157.999C202.02 158.14 202.316 158.343 202.593 158.62L201.763 159.449C201.486 159.119 201.102 158.95 200.602 158.95C200.11 158.95 199.792 159.065 199.651 159.301C199.516 159.537 199.516 159.74 199.651 159.902C199.792 160.07 200.11 160.192 200.602 160.273C201.129 160.327 201.608 160.502 202.033 160.792C202.458 161.082 202.674 161.541 202.674 162.175C202.674 162.675 202.445 163.1 201.986 163.457C201.534 163.815 201 163.997 200.393 163.997C199.819 163.997 199.334 163.916 198.949 163.747C198.564 163.585 198.234 163.363 197.957 163.086L198.787 162.256C199.064 162.594 199.529 162.783 200.191 162.843C200.744 162.843 201.088 162.722 201.223 162.486C201.358 162.256 201.358 162.02 201.223 161.784C201.088 161.548 200.744 161.406 200.191 161.352C199.698 161.291 199.239 161.143 198.827 160.893C198.409 160.644 198.207 160.219 198.207 159.611C198.207 159.065 198.443 158.626 198.908 158.289C199.381 157.958 199.867 157.79 200.359 157.79C200.94 157.79 201.385 157.857 201.702 157.999Z" fill="black"/>
<path d="M207.266 163.106C206.673 162.513 206.376 161.77 206.376 160.88C206.376 160.009 206.673 159.281 207.266 158.68C207.86 158.087 208.596 157.79 209.473 157.79C210.357 157.79 211.12 158.066 211.754 158.62L210.924 159.524C210.506 159.193 210.02 159.031 209.473 159.031C208.913 159.031 208.468 159.207 208.123 159.551C207.786 159.895 207.617 160.333 207.617 160.873C207.617 161.453 207.793 161.905 208.13 162.25C208.474 162.587 208.927 162.756 209.48 162.756C210.04 162.756 210.519 162.594 210.924 162.263L211.754 163.174C211.12 163.72 210.364 163.997 209.473 163.997C208.596 163.997 207.86 163.7 207.266 163.106Z" fill="black"/>
<path d="M215.883 162.839C216.43 162.839 216.882 162.651 217.226 162.279C217.571 161.908 217.739 161.443 217.739 160.896C217.739 160.343 217.571 159.877 217.226 159.506C216.882 159.135 216.43 158.953 215.877 158.953C215.33 158.953 214.878 159.135 214.534 159.506C214.19 159.877 214.014 160.343 214.014 160.896C214.014 161.443 214.19 161.908 214.534 162.279C214.878 162.651 215.33 162.839 215.883 162.839ZM213.663 163.103C213.069 162.509 212.779 161.773 212.779 160.896C212.779 160.012 213.069 159.277 213.663 158.683C214.257 158.089 214.999 157.793 215.877 157.793C216.761 157.793 217.503 158.089 218.097 158.683C218.684 159.277 218.981 160.012 218.981 160.896C218.981 161.773 218.684 162.516 218.097 163.109C217.503 163.703 216.761 164 215.877 164C214.999 164 214.257 163.696 213.663 163.103Z" fill="black"/>
<path d="M219.904 163.997V157.79H220.315L223.008 160.853L225.701 157.79H226.112V163.997H224.871V160.401L223.008 162.465L221.145 160.401V163.997H219.904Z" fill="black"/>
<path d="M228.593 160.275H230.335C230.834 160.268 231.09 160.038 231.104 159.593C231.09 159.182 230.834 158.972 230.348 158.952H228.593V160.275ZM227.352 163.999V157.792H230.058C231.509 157.792 232.231 158.385 232.231 159.58C232.231 160.814 231.509 161.435 230.065 161.435H228.593V163.999H227.352Z" fill="black"/>
<path d="M233.128 163.997V157.796L237.69 157.79V158.95H234.37V160.273H236.86V161.426H234.37V162.837H237.676V163.997H233.128Z" fill="black"/>
<path d="M244.006 157.792V158.952H241.934V163.999H240.692V158.952H238.627V157.792H244.006Z" fill="black"/>
<path d="M244.924 157.789H246.16V163.997H244.924V157.789Z" fill="black"/>
<path d="M252.474 157.792V158.952H250.402V163.999H249.16V158.952H247.095V157.792H252.474Z" fill="black"/>
<path d="M253.394 157.789H254.63V163.997H253.394V157.789Z" fill="black"/>
<path d="M258.673 162.839C259.219 162.839 259.671 162.651 260.015 162.279C260.36 161.908 260.528 161.443 260.528 160.896C260.528 160.343 260.36 159.877 260.015 159.506C259.671 159.135 259.219 158.953 258.666 158.953C258.112 158.953 257.667 159.135 257.323 159.506C256.979 159.877 256.803 160.343 256.803 160.896C256.803 161.443 256.979 161.908 257.323 162.279C257.667 162.651 258.119 162.839 258.673 162.839ZM256.452 163.103C255.858 162.509 255.568 161.773 255.568 160.896C255.568 160.012 255.858 159.277 256.452 158.683C257.046 158.089 257.788 157.793 258.666 157.793C259.55 157.793 260.292 158.089 260.879 158.683C261.473 159.277 261.77 160.012 261.77 160.896C261.77 161.773 261.473 162.516 260.879 163.109C260.292 163.703 259.55 164 258.666 164C257.788 164 257.046 163.696 256.452 163.103Z" fill="black"/>
<path d="M262.693 163.997V157.79H263.104L266.998 161.683V157.79H268.24V163.997H267.781L263.934 160.151V163.997H262.693Z" fill="black"/>
</svg>
