<?xml version="1.0" encoding="UTF-8" standalone="no"?>
<svg
   viewBox="0 0 926.99997 450.71621"
   height="28.169764pc"
   width="57.9375pc"
   xml:space="preserve"
   id="svg2"
   version="1.1"
   sodipodi:docname="background-blue.svg"
   inkscape:version="1.1 (c68e22c387, 2021-05-23)"
   xmlns:inkscape="http://www.inkscape.org/namespaces/inkscape"
   xmlns:sodipodi="http://sodipodi.sourceforge.net/DTD/sodipodi-0.dtd"
   xmlns="http://www.w3.org/2000/svg"
   xmlns:svg="http://www.w3.org/2000/svg"
   xmlns:rdf="http://www.w3.org/1999/02/22-rdf-syntax-ns#"
   xmlns:cc="http://creativecommons.org/ns#"
   xmlns:dc="http://purl.org/dc/elements/1.1/"><sodipodi:namedview
     id="namedview76"
     pagecolor="#ffffff"
     bordercolor="#666666"
     borderopacity="1.0"
     inkscape:pageshadow="2"
     inkscape:pageopacity="0.0"
     inkscape:pagecheckerboard="0"
     inkscape:document-units="pc"
     showgrid="false"
     units="px"
     fit-margin-top="0"
     fit-margin-left="0"
     fit-margin-right="0"
     fit-margin-bottom="0"
     inkscape:zoom="0.8202538"
     inkscape:cx="560.19247"
     inkscape:cy="172.50758"
     inkscape:window-width="1920"
     inkscape:window-height="991"
     inkscape:window-x="-9"
     inkscape:window-y="-9"
     inkscape:window-maximized="1"
     inkscape:current-layer="g1540" /><metadata
     id="metadata8"><rdf:RDF><cc:Work
         rdf:about=""><dc:format>image/svg+xml</dc:format><dc:type
           rdf:resource="http://purl.org/dc/dcmitype/StillImage" /></cc:Work></rdf:RDF></metadata><defs
     id="defs6" /><g
     transform="matrix(2.2579169,0,0,-2.2579169,-13.568501,1517.4916)"
     id="g10"
     style="stroke:#f5f5f5;stroke-opacity:1"><g
       id="g1353"
       style="stroke:#81d4f9;stroke-opacity:1"><path
         style="fill:none;stroke:#81d4f9;stroke-width:2.25;stroke-linecap:butt;stroke-linejoin:miter;stroke-miterlimit:4;stroke-dasharray:none;stroke-opacity:1"
         d="m 128.00957,618.29254 c 0,-12.50593 0,-25.01262 0.57808,-31.84441 0.57807,-6.83179 1.73408,-7.9878 8.7722,-8.40828 7.03811,-0.42048 19.97288,-0.10499 32.89918,0.21028"
         id="path1182" /><path
         style="fill:none;stroke:#81d4f9;stroke-width:2.25;stroke-linecap:butt;stroke-linejoin:miter;stroke-miterlimit:4;stroke-dasharray:none;stroke-opacity:1"
         d="m 163.63785,585.18661 c 2.20704,-2.31214 4.4141,-4.62431 4.36194,-6.88357 -0.0522,-2.25926 -2.36431,-4.4663 -4.67725,-6.6741"
         id="path1213"
         transform="translate(3)" /><path
         style="fill:none;stroke:#81d4f9;stroke-width:2.25;stroke-linecap:butt;stroke-linejoin:miter;stroke-miterlimit:4;stroke-dasharray:none;stroke-opacity:1"
         d="m 163.63785,585.18661 c 2.20704,-2.31214 4.4141,-4.62431 4.36194,-6.88357 -0.0522,-2.25926 -2.36431,-4.4663 -4.67725,-6.6741"
         id="path1213-5"
         transform="rotate(90,127.8097,578.52557)" /></g><g
       id="g1359"
       style="stroke:#81d4f9;stroke-opacity:1"><circle
         style="opacity:1;fill:none;fill-opacity:1;stroke:#81d4f9;stroke-width:2.25;stroke-miterlimit:4;stroke-dasharray:none;stroke-opacity:1"
         id="path1251"
         cx="44.143482"
         cy="-504.75177"
         r="4.8870649"
         transform="scale(1,-1)" /><path
         style="fill:none;stroke:#81d4f9;stroke-width:2.25;stroke-linecap:butt;stroke-linejoin:miter;stroke-miterlimit:4;stroke-dasharray:none;stroke-opacity:1"
         d="m 24.635632,533.4008 c 0,1.89542 0,5.68552 0.724719,7.43153 0.724719,1.74602 2.174163,1.4487 3.492979,1.11433 1.318816,-0.33436 2.508334,-0.70608 3.548493,-1.11473 1.040158,-0.40865 1.932298,-0.85472 2.600949,-1.26335 0.668651,-0.40862 1.114697,-0.78033 1.709144,-1.30047 0.594448,-0.52015 1.337727,-1.1891 2.266598,-2.15512 0.928872,-0.96602 2.043672,-2.22946 1.000856,-3.78504 -1.042816,-1.55559 -4.243858,-3.40371 -6.325257,-3.88691 -2.081399,-0.4832 -3.041634,0.39864 -3.893347,1.02543 -0.851712,0.62678 -1.594842,0.99834 -2.430961,1.29566 -0.83612,0.29732 -1.764689,0.52017 -2.694173,0.74325 0,0 0,0 0,0 0,0 0,0 0,1.89542 z"
         id="path1310"
         transform="rotate(-30,1.1143973,476.02136)" /><path
         style="fill:none;stroke:#81d4f9;stroke-width:2.25;stroke-linecap:butt;stroke-linejoin:miter;stroke-miterlimit:4;stroke-dasharray:none;stroke-opacity:1"
         d="m 24.635632,533.4008 c 0,1.89542 0,5.68552 0.724719,7.43153 0.724719,1.74602 2.174163,1.4487 3.492979,1.11433 1.318816,-0.33436 2.508334,-0.70608 3.548493,-1.11473 1.040158,-0.40865 1.932298,-0.85472 2.600949,-1.26335 0.668651,-0.40862 1.114697,-0.78033 1.709144,-1.30047 0.594448,-0.52015 1.337727,-1.1891 2.266598,-2.15512 0.928872,-0.96602 2.043672,-2.22946 1.000856,-3.78504 -1.042816,-1.55559 -4.243858,-3.40371 -6.325257,-3.88691 -2.081399,-0.4832 -3.041634,0.39864 -3.893347,1.02543 -0.851712,0.62678 -1.594842,0.99834 -2.430961,1.29566 -0.83612,0.29732 -1.764689,0.52017 -2.694173,0.74325 0,0 0,0 0,0 0,0 0,0 0,1.89542 z"
         id="path1310-6"
         transform="rotate(90,42.433204,523.15191)" /><path
         style="fill:none;stroke:#81d4f9;stroke-width:2.25;stroke-linecap:butt;stroke-linejoin:miter;stroke-miterlimit:4;stroke-dasharray:none;stroke-opacity:1"
         d="m 24.635632,533.4008 c 0,1.89542 0,5.68552 0.724719,7.43153 0.724719,1.74602 2.174163,1.4487 3.492979,1.11433 1.318816,-0.33436 2.508334,-0.70608 3.548493,-1.11473 1.040158,-0.40865 1.932298,-0.85472 2.600949,-1.26335 0.668651,-0.40862 1.114697,-0.78033 1.709144,-1.30047 0.594448,-0.52015 1.337727,-1.1891 2.266598,-2.15512 0.928872,-0.96602 2.043672,-2.22946 1.000856,-3.78504 -1.042816,-1.55559 -4.243858,-3.40371 -6.325257,-3.88691 -2.081399,-0.4832 -3.041634,0.39864 -3.893347,1.02543 -0.851712,0.62678 -1.594842,0.99834 -2.430961,1.29566 -0.83612,0.29732 -1.764689,0.52017 -2.694173,0.74325 0,0 0,0 0,0 0,0 0,0 0,1.89542 z"
         id="path1310-6-9"
         transform="rotate(-150,31.789212,511.09955)" /></g><g
       id="g1207"
       style="stroke:#81d4f9;stroke-opacity:1"><path
         style="fill:none;stroke:#81d4f9;stroke-width:2.25;stroke-linecap:butt;stroke-linejoin:miter;stroke-miterlimit:4;stroke-dasharray:none;stroke-opacity:1"
         d="m 45.481164,604.18607 c 6.837788,0 13.674827,0 18.021814,-0.92884 4.346987,-0.92885 6.205083,-2.78695 7.134028,-7.91435 0.928944,-5.1274 0.928944,-13.52507 0.928944,-21.92348"
         id="path1394" /><path
         style="fill:none;stroke:#81d4f9;stroke-width:2.25;stroke-linecap:butt;stroke-linejoin:miter;stroke-miterlimit:4;stroke-dasharray:none;stroke-opacity:1"
         d="m 71.788897,556.02954 c 0,-4.30956 0,-8.61987 -0.81724,-11.59263 -0.817239,-2.97277 -2.451899,-4.60743 -11.22479,-5.42527 -8.772891,-0.81785 -24.66914,-0.81785 -33.359211,0.46027 -8.69007,1.27812 -10.165645,3.83389 -10.908732,8.65241 -0.743086,4.81852 -0.753757,11.90051 -0.764426,18.98108"
         id="path1398" /><path
         style="fill:none;stroke:#81d4f9;stroke-width:2.25;stroke-linecap:butt;stroke-linejoin:miter;stroke-miterlimit:4;stroke-dasharray:none;stroke-opacity:1"
         d="m 15.160388,584.12085 c 0,5.5001 0,10.99946 0.870864,14.25156 0.870865,3.2521 2.612184,4.25745 5.286392,4.77739 2.674207,0.51995 6.286034,0.55517 9.89492,0.59037"
         id="path1402" /><circle
         style="opacity:1;fill:none;fill-opacity:1;stroke:#81d4f9;stroke-width:2.25;stroke-miterlimit:4;stroke-dasharray:none;stroke-opacity:1"
         id="path1408"
         cx="15.160388"
         cy="-576.09473"
         transform="scale(1,-1)"
         r="8.0260878" /><path
         style="fill:none;stroke:#81d4f9;stroke-width:2.25;stroke-linecap:butt;stroke-linejoin:miter;stroke-miterlimit:4;stroke-dasharray:none;stroke-opacity:1"
         d="m 21.6641,570.34257 c -4.393285,3.67418 -8.850566,7.40188 -13.2759638,11.10292"
         id="path1418" /><path
         style="fill:none;stroke:#81d4f9;stroke-width:2.25;stroke-linecap:butt;stroke-linejoin:miter;stroke-miterlimit:4;stroke-dasharray:none;stroke-opacity:1"
         d="M 21.939983,581.12517 C 17.61835,577.68736 13.25116,574.21331 8.9055115,570.75639"
         id="path1422" /><path
         style="fill:none;stroke:#81d4f9;stroke-width:2.25;stroke-linecap:butt;stroke-linejoin:miter;stroke-miterlimit:4;stroke-dasharray:none;stroke-opacity:1"
         d="m 31.212564,611.32037 c 0,-5.20135 0,-10.40344 0,-15.60628"
         id="path1430" /><path
         style="fill:none;stroke:#81d4f9;stroke-width:2.25;stroke-linecap:butt;stroke-linejoin:miter;stroke-miterlimit:4;stroke-dasharray:none;stroke-opacity:1"
         d="m 44.589377,589.02568 c 0,10.7022 0,21.40365 0,32.10435"
         id="path1434" /><path
         style="fill:none;stroke:#81d4f9;stroke-width:2.25;stroke-linecap:butt;stroke-linejoin:miter;stroke-miterlimit:4;stroke-dasharray:none;stroke-opacity:1"
         d="m 71.788897,556.02954 c 3.33795,5.7815 6.675389,11.56211 10.012315,17.34183"
         id="path1438"
         transform="translate(-0.1477943,-0.57539998)" /></g><path
       transform="translate(0.89178754,-9.8096629)"
       id="path1442"
       d="m 204.64035,654.82068 c 1.36333,-5.59934 4.48458,-5.59934 6.82739,-6.05115 2.34281,-0.45181 3.90843,-1.35572 3.5328,-8.85892 -0.37564,-7.5032 -2.69275,-21.61115 -4.25734,-25.87999 -1.56458,-4.26883 -2.37675,1.29954 -2.78279,7.54099 -0.40604,6.24145 -0.40604,13.15587 -2.74482,16.6127 -2.33878,3.45683 -7.01812,3.45683 -9.47942,3.91034 -2.46131,0.45351 -2.70413,1.35973 -1.16345,8.01547 1.54068,6.65575 4.84836,19.0002 6.50613,25.18705 1.65776,6.18686 2.9888,7.5179 2.79148,1.9288 -0.19731,-5.5891 -0.59331,-16.80594 0.77002,-22.40529 z"
       style="fill:none;stroke:#81d4f9;stroke-width:2.25;stroke-linecap:butt;stroke-linejoin:miter;stroke-miterlimit:4;stroke-dasharray:none;stroke-opacity:1" /><g
       transform="translate(4.7294177,-7.2517738)"
       id="g1250"
       style="stroke:#81d4f9;stroke-opacity:1"><path
         style="fill:none;stroke:#81d4f9;stroke-width:2.25;stroke-linecap:butt;stroke-linejoin:miter;stroke-miterlimit:4;stroke-dasharray:none;stroke-opacity:1"
         d="m 109.4072,512.66889 c 0.10493,2.41347 0.21023,4.83529 -0.87749,8.0185 -1.08772,3.18321 -3.36956,7.13547 -4.15515,10.43534 -0.78558,3.29987 -0.0759,5.94827 1.15013,8.14334 1.22607,2.19507 3.07436,4.04336 5.27839,4.94057 2.20403,0.8972 4.81911,0.8972 6.93665,0.0863 2.11754,-0.81092 3.7403,-2.43367 4.92178,-4.62692 1.18148,-2.19326 1.97483,-5.15409 1.23009,-8.54011 -0.74475,-3.38601 -3.00115,-7.29423 -4.12982,-10.45786 -1.12866,-3.16363 -1.12866,-5.58074 -1.12866,-7.99915"
         id="path1209" /><path
         style="fill:none;stroke:#81d4f9;stroke-width:2.25;stroke-linecap:butt;stroke-linejoin:miter;stroke-miterlimit:4;stroke-dasharray:none;stroke-opacity:1"
         d="m 110.48492,512.55686 c 1.99834,0.11203 5.07364,0.11203 7.28054,0.11203 2.2069,0 3.54604,0 4.11068,-1.35708 0.56464,-1.35708 0.35309,-4.10723 -0.0933,-5.8152 -0.44642,-1.70796 -1.12936,-2.3909 -3.39108,-2.73285 -2.26171,-0.34194 -6.09358,-0.34194 -8.37949,0.0518 -2.28591,0.39373 -3.02233,1.18275 -3.44258,2.57285 -0.42025,1.3901 -0.52564,3.39255 -0.46066,4.59416 0.065,1.20161 0.29964,1.60806 0.87686,1.92277 0.57722,0.31472 1.50072,0.53948 3.49906,0.65152 z"
         id="path1214" /><path
         style="fill:none;stroke:#81d4f9;stroke-width:1.5;stroke-linecap:butt;stroke-linejoin:miter;stroke-miterlimit:4;stroke-dasharray:none;stroke-opacity:1"
         d="m 122.73226,510.32544 c 0.9297,0 1.85864,0 2.78684,0"
         id="path1218" /><path
         style="fill:none;stroke:#81d4f9;stroke-width:1.5;stroke-linecap:butt;stroke-linejoin:miter;stroke-miterlimit:4;stroke-dasharray:none;stroke-opacity:1"
         d="m 122.62079,505.97797 c 0.89254,0 1.78432,0 2.67536,0"
         id="path1222" /><path
         style="fill:none;stroke:#81d4f9;stroke-width:1.5;stroke-linecap:butt;stroke-linejoin:miter;stroke-miterlimit:4;stroke-dasharray:none;stroke-opacity:1"
         d="m 106.45714,507.76155 c -1.29977,0 -2.60029,0 -3.90157,0"
         id="path1226" /><path
         style="fill:none;stroke:#81d4f9;stroke-width:1.5;stroke-linecap:butt;stroke-linejoin:miter;stroke-miterlimit:4;stroke-dasharray:none;stroke-opacity:1"
         d="m 106.68009,503.85997 c -1.33693,0 -2.74893,0 -4.12452,0"
         id="path1230" /><path
         style="fill:none;stroke:#81d4f9;stroke-width:1.5;stroke-linecap:butt;stroke-linejoin:miter;stroke-miterlimit:4;stroke-dasharray:none;stroke-opacity:1"
         d="m 106.2342,511.88606 c -1.29978,0 -2.60031,0 -3.90158,0"
         id="path1234" /><path
         style="fill:none;stroke:#81d4f9;stroke-width:2.25;stroke-linecap:butt;stroke-linejoin:miter;stroke-miterlimit:4;stroke-dasharray:none;stroke-opacity:1"
         d="m 110.91608,502.41082 c 0.2613,-0.97519 0.52274,-1.9509 1.04043,-2.66238 0.51768,-0.71148 1.29043,-1.15763 2.08251,-1.14656 0.79208,0.0111 1.60294,0.47921 2.14408,1.17102 0.54114,0.69181 0.81443,1.61042 1.08696,2.52645"
         id="path1238" /></g><g
       transform="translate(-18.287082,9.4588354)"
       id="g1337"
       style="stroke:#81d4f9;stroke-opacity:1"><ellipse
         style="opacity:1;fill:none;fill-opacity:1;stroke:#81d4f9;stroke-width:2.25;stroke-miterlimit:4;stroke-dasharray:none;stroke-opacity:1"
         id="path1255"
         cx="277.43451"
         cy="-549.724"
         transform="scale(1,-1)"
         rx="18.281645"
         ry="36.56329" /><ellipse
         style="opacity:1;fill:none;fill-opacity:1;stroke:#81d4f9;stroke-width:2.25;stroke-miterlimit:4;stroke-dasharray:none;stroke-opacity:1"
         id="path1255-6"
         cx="614.79218"
         cy="-34.596661"
         rx="18.281645"
         ry="36.56329"
         transform="matrix(0.5,0.8660254,0.8660254,-0.5,0,0)" /><ellipse
         style="opacity:1;fill:none;fill-opacity:1;stroke:#81d4f9;stroke-width:2.25;stroke-miterlimit:4;stroke-dasharray:none;stroke-opacity:1"
         id="path1255-6-7"
         cx="337.35767"
         cy="515.12732"
         rx="18.281645"
         ry="36.56329"
         transform="matrix(-0.5,0.8660254,0.8660254,0.5,0,0)" /><circle
         style="opacity:1;fill:#81d4f9;fill-opacity:1;stroke:#81d4f9;stroke-width:2.25;stroke-miterlimit:4;stroke-dasharray:none;stroke-opacity:1"
         id="path1302"
         cx="277.43451"
         cy="-549.724"
         r="7.3572474"
         transform="scale(1,-1)" /><circle
         style="opacity:1;fill:#81d4f9;fill-opacity:1;stroke:#81d4f9;stroke-width:2.25;stroke-miterlimit:4;stroke-dasharray:none;stroke-opacity:1"
         id="path1305"
         cx="284.12292"
         cy="-516.28192"
         r="3.790097"
         transform="scale(1,-1)" /><circle
         style="opacity:1;fill:#81d4f9;fill-opacity:1;stroke:#81d4f9;stroke-width:2.25;stroke-miterlimit:4;stroke-dasharray:none;stroke-opacity:1"
         id="path1305-5"
         cx="245.33017"
         cy="-558.19598"
         r="3.790097"
         transform="scale(1,-1)" /></g><g
       id="g1354"
       style="stroke:#81d4f9;stroke-opacity:1"><path
         style="fill:none;stroke:#81d4f9;stroke-width:2.25;stroke-linecap:butt;stroke-linejoin:miter;stroke-miterlimit:4;stroke-dasharray:none;stroke-opacity:1"
         d="m 52.467122,664.23342 c -0.743444,-4.75577 -0.743444,-14.56543 -0.334677,-19.87941 0.408766,-5.31397 1.226177,-6.13138 12.150949,-6.54012 10.924771,-0.40873 31.956099,-0.40873 43.228286,-0.20592 11.27219,0.20282 12.79287,0.61028 12.99487,1.36933 0.20201,0.75904 -0.91119,1.87224 -11.85065,6.83389 -10.939463,4.96165 -31.706189,13.77254 -42.832617,18.32664 -11.126428,4.5541 -12.612716,4.85135 -13.356161,0.0956 z"
         id="path1339"
         transform="translate(-2.6753627,-5.3507253)" /><path
         style="fill:none;stroke:#81d4f9;stroke-width:2.25;stroke-linecap:butt;stroke-linejoin:miter;stroke-miterlimit:4;stroke-dasharray:none;stroke-opacity:1"
         d="m 49.159789,642.53294 c 3.809426,0 7.618102,0 9.485155,-1.61482 1.867053,-1.61482 1.792259,-4.88703 1.717926,-8.13911"
         id="path1343" /><path
         style="fill:none;stroke:#81d4f9;stroke-width:2.25;stroke-linecap:butt;stroke-linejoin:miter;stroke-miterlimit:4;stroke-dasharray:none;stroke-opacity:1"
         d="m 106.29366,640.75728 c -0.91886,-0.91886 -1.83847,-1.83847 -2.4021,-2.68474 -0.56363,-0.84627 -0.77044,-1.61808 -0.81719,-2.52563 -0.0467,-0.90755 0.0695,-1.9724 0.18458,-3.0267"
         id="path1347" /></g><g
       transform="translate(-20.178849,12.61178)"
       id="g1372"
       style="stroke:#81d4f9;stroke-opacity:1"><path
         style="fill:none;stroke:#81d4f9;stroke-width:2.25;stroke-linecap:butt;stroke-linejoin:miter;stroke-miterlimit:4;stroke-dasharray:none;stroke-opacity:1"
         d="m 299.06521,602.34982 c -0.31638,5.25552 -0.31638,14.91655 0.97133,21.81385 1.28772,6.8973 3.86301,11.03139 7.42215,14.31524 3.55914,3.28386 8.10199,5.71822 12.70064,5.59128 4.59865,-0.12694 9.25542,-2.81553 12.1255,-6.18317 2.87009,-3.36765 3.97472,-7.49021 4.5221,-14.33553 0.54738,-6.84532 0.54738,-16.44859 0.0523,-21.53703 -0.49505,-5.08844 -1.48591,-5.66051 -2.49133,-5.65266 -1.00542,0.008 -2.02285,0.59526 -2.53214,5.49041 -0.50929,4.89514 -0.50929,14.09231 -0.9197,20.22327 -0.41041,6.13095 -1.23123,9.19428 -3.12898,11.58435 -1.89775,2.39006 -4.87388,4.10833 -8.09611,3.96609 -3.22222,-0.14224 -6.69115,-2.14503 -9.17094,-4.43668 -2.47978,-2.29164 -3.969,-4.87104 -4.71405,-10.79501 -0.74506,-5.92398 -0.74506,-15.18536 -1.48026,-20.24248 -0.7352,-5.05713 -2.20626,-5.90645 -3.25896,-5.90639 -1.05269,6e-5 -1.68518,0.84894 -2.00157,6.10446 z"
         id="path1357" /><path
         style="fill:none;stroke:#81d4f9;stroke-width:2.25;stroke-linecap:butt;stroke-linejoin:miter;stroke-miterlimit:4;stroke-dasharray:none;stroke-opacity:1"
         d="m 298.88817,604.13034 c 1.90509,0 3.80943,0 5.71301,0"
         id="path1361" /><path
         style="fill:none;stroke:#81d4f9;stroke-width:2.25;stroke-linecap:butt;stroke-linejoin:miter;stroke-miterlimit:4;stroke-dasharray:none;stroke-opacity:1"
         d="m 331.65041,604.14371 c 1.78743,0 3.57409,0 5.36001,0"
         id="path1365" /></g><g
       transform="translate(-14.503548,8.1976573)"
       id="g1408"
       style="stroke:#81d4f9;stroke-opacity:1"><path
         style="fill:none;stroke:#81d4f9;stroke-width:2.25;stroke-linecap:butt;stroke-linejoin:miter;stroke-miterlimit:4;stroke-dasharray:none;stroke-opacity:1"
         d="m 328.84666,549.78703 c 28.78488,-7.71288 57.56925,-15.42563 86.35311,-23.13824"
         id="path1374" /><circle
         style="opacity:1;fill:#81d4f9;fill-opacity:1;stroke:#81d4f9;stroke-width:2.25;stroke-miterlimit:4;stroke-dasharray:none;stroke-opacity:1"
         id="path1378"
         cx="368.88351"
         cy="-533.10822"
         r="3.5671504"
         transform="scale(1,-1)" /><path
         style="fill:none;stroke:#81d4f9;stroke-width:1.5;stroke-linecap:butt;stroke-linejoin:miter;stroke-miterlimit:4;stroke-dasharray:none;stroke-opacity:1"
         d="m 407.83345,528.82773 c 0.88339,3.29686 1.76655,6.59283 2.14448,8.47747 0.37792,1.88465 0.25093,2.3586 -1.37088,3.01282 -1.6218,0.65423 -4.74584,1.49131 -6.41074,2.09015 -1.6649,0.59883 -1.87332,0.95983 -1.5575,2.70763 0.31582,1.7478 1.15664,4.8858 1.50362,6.72594 0.34697,1.84014 0.20094,2.38516 -1.56387,3.11067 -1.7648,0.72551 -5.15543,1.63403 -7.07978,2.0262 -1.92435,0.39218 -2.38584,0.26852 -3.09443,-1.57498 -0.70859,-1.8435 -1.65989,-5.39381 -2.39312,-7.24157 -0.73323,-1.84775 -1.24695,-1.98541 -2.83313,-1.69831 -1.58618,0.28709 -4.23514,0.99688 -5.78956,1.29153 -1.55443,0.29465 -2.08751,0.15181 -2.79185,-1.619 -0.70434,-1.77081 -1.61472,-5.16838 -2.52697,-8.57296"
         id="path1380" /><path
         style="fill:none;stroke:#81d4f9;stroke-width:1.5;stroke-linecap:butt;stroke-linejoin:miter;stroke-miterlimit:4;stroke-dasharray:none;stroke-opacity:1"
         d="m 387.42799,546.96702 c -1.04513,-3.90046 -2.09049,-7.8018 -3.13609,-11.70403"
         id="path1385" /><path
         style="fill:none;stroke:#81d4f9;stroke-width:1.5;stroke-linecap:butt;stroke-linejoin:miter;stroke-miterlimit:4;stroke-dasharray:none;stroke-opacity:1"
         d="m 400.62162,545.14695 c -1.21117,-4.52017 -2.42259,-9.04124 -3.63424,-13.5632"
         id="path1389" /><path
         style="fill:none;stroke:#81d4f9;stroke-width:1.5;stroke-linecap:butt;stroke-linejoin:miter;stroke-miterlimit:4;stroke-dasharray:none;stroke-opacity:1"
         d="m 387.42799,546.96702 c 4.25819,-1.14098 8.51588,-2.28182 12.77305,-3.42253"
         id="path1393" /><path
         style="fill:none;stroke:#81d4f9;stroke-width:1.5;stroke-linecap:butt;stroke-linejoin:miter;stroke-miterlimit:4;stroke-dasharray:none;stroke-opacity:1"
         d="m 334.75475,548.28214 c 1.16054,4.33117 2.32083,8.66145 3.10632,10.94476 0.78549,2.28332 1.1957,2.52015 3.27235,2.13667 2.07665,-0.38347 5.83644,-1.3909 7.83474,-2.10602 1.9983,-0.71512 2.24395,-1.14059 1.78603,-3.52099 -0.45793,-2.3804 -1.61846,-6.71159 -2.77989,-11.0461"
         id="path1397" /></g><g
       transform="translate(0.63058902,-5.0447122)"
       id="g1527"
       style="stroke:#81d4f9;stroke-opacity:1;fill:#81d4f9;fill-opacity:1"><g
   aria-label="e   = -1"
   transform="scale(1,-1)"
   id="text1412"
   style="font-size:36px;line-height:1.25;-inkscape-font-specification:sans-serif;letter-spacing:0px;word-spacing:0px;stroke-width:0.75;stroke:#81d4f9;stroke-opacity:1;fill:#81d4f9;fill-opacity:1"><path
     d="m 171.84808,-504.48114 v 1.40625 h -13.21875 q 0.1875,2.96875 1.78125,4.53125 1.60938,1.54687 4.46875,1.54687 1.65625,0 3.20313,-0.40625 1.5625,-0.40625 3.09375,-1.21875 v 2.71875 q -1.54688,0.65625 -3.17188,1 -1.625,0.34375 -3.29687,0.34375 -4.1875,0 -6.64063,-2.4375 -2.4375,-2.4375 -2.4375,-6.59375 0,-4.29687 2.3125,-6.8125 2.32813,-2.53125 6.26563,-2.53125 3.53125,0 5.57812,2.28125 2.0625,2.26563 2.0625,6.17188 z m -2.875,-0.84375 q -0.0312,-2.35938 -1.32812,-3.76563 -1.28125,-1.40625 -3.40625,-1.40625 -2.40625,0 -3.85938,1.35938 -1.4375,1.35937 -1.65625,3.82812 z"
     style="font-size:32px;stroke:#81d4f9;stroke-opacity:1;fill:#81d4f9;fill-opacity:1"
     id="path1919" /><path
     d="m 207.45746,-509.54364 h 20.03125 v 2.625 h -20.03125 z m 0,6.375 h 20.03125 v 2.65625 h -20.03125 z"
     style="font-size:32px;stroke:#81d4f9;stroke-opacity:1;fill:#81d4f9;fill-opacity:1"
     id="path1921" /><path
     d="m 242.61371,-505.05927 h 8.42187 v 2.5625 h -8.42187 z"
     style="font-size:32px;stroke:#81d4f9;stroke-opacity:1;fill:#81d4f9;fill-opacity:1"
     id="path1923" /><path
     d="m 256.56683,-497.66864 h 5.15625 v -17.79688 l -5.60937,1.125 v -2.875 l 5.57812,-1.125 h 3.15625 v 20.67188 h 5.15625 v 2.65625 h -13.4375 z"
     style="font-size:32px;stroke:#81d4f9;stroke-opacity:1;fill:#81d4f9;fill-opacity:1"
     id="path1925" /></g>

<g
   aria-label="iπ"
   transform="scale(1,-1)"
   id="text1416"
   style="font-size:12px;line-height:1.25;font-family:'Futura PT Cond';-inkscape-font-specification:'Futura PT Cond';letter-spacing:0px;word-spacing:0px;stroke-width:0.75;stroke:#81d4f9;stroke-opacity:1;fill:#81d4f9;fill-opacity:1"><path
     d="m 179.78587,-508.57004 v -10.74219 h 2.27735 v 10.74219 z m -4.33984,0 v -1.86914 h 4.55469 v 1.86914 z m 6.40234,0 v -1.86914 h 3.7168 v 1.86914 z m -5.75781,-9.51758 v -1.86914 h 5.97266 v 1.86914 z m 4.75879,-3.67382 q -0.65527,0 -1.12793,-0.46192 -0.46191,-0.47265 -0.46191,-1.12793 0,-0.66601 0.46191,-1.12793 0.47266,-0.46191 1.12793,-0.46191 0.66602,0 1.12793,0.46191 0.46191,0.46192 0.46191,1.12793 0,0.65528 -0.46191,1.12793 -0.46191,0.46192 -1.12793,0.46192 z"
     style="font-size:22px;stroke:#81d4f9;stroke-opacity:1;fill:#81d4f9;fill-opacity:1"
     id="path2083" /><path
     d="m 197.01634,-508.35519 q -1.5791,0 -2.28808,-0.83789 -0.69825,-0.84864 -0.69825,-2.70704 v -8.05664 h 2.27735 v 7.94922 q 0,0.84863 0.24707,1.23535 0.25781,0.37598 1.10644,0.37598 0.15039,0 0.30078,-0.0215 0.16114,-0.0215 0.36524,-0.0645 l 0.25781,1.99805 q -0.39746,0.0752 -0.73047,0.0967 -0.33301,0.0322 -0.83789,0.0322 z m -7.94922,-0.21485 v -11.38672 h 2.27735 v 11.38672 z m -1.80468,-9.3457 v -2.04102 h 11.17187 v 2.04102 z"
     style="font-size:22px;stroke:#81d4f9;stroke-opacity:1;fill:#81d4f9;fill-opacity:1"
     id="path2085" /></g>

</g><path
       transform="translate(-6.3058903,28.376506)"
       id="path1419"
       d="m 295.74626,466.95118 c 0.81852,3.05476 1.6368,6.10864 3.44246,9.03177 1.80566,2.92313 4.59981,5.71728 7.50086,7.11357 2.90105,1.3963 5.91141,1.3963 8.09181,0.22545 2.18041,-1.17086 3.58576,-3.60499 4.74493,-6.55221 1.15917,-2.94722 2.09859,-6.45319 3.03105,-9.93317 0.93245,-3.47999 1.85759,-6.93263 3.01722,-9.86658 1.15963,-2.93395 2.73188,-5.65716 4.33863,-7.44118 1.60676,-1.78402 3.33645,-2.78266 5.22972,-3.28196 1.89327,-0.49929 3.95001,-0.49929 5.58671,0.55526 1.6367,1.05456 2.85477,3.1643 4.27114,5.61754 1.41638,2.45324 3.03288,5.25309 4.13888,7.76546 1.10601,2.51236 1.70285,4.73982 2.8675,7.35347 1.16466,2.61366 2.95096,5.70763 4.53984,7.94028 1.58887,2.23265 3.00786,3.65164 4.85231,4.66482 1.84444,1.01318 4.11701,1.62212 6.31491,1.31277 2.19791,-0.30934 4.32467,-1.53723 6.06438,-3.32324 1.73972,-1.78601 3.0939,-4.13153 4.15422,-6.73454 1.06033,-2.603 1.82678,-5.46345 2.55614,-8.18545 0.72936,-2.72201 1.36875,-5.10826 2.46965,-7.681 1.1009,-2.57273 2.63627,-5.23208 4.35873,-7.11325 1.72245,-1.88117 3.63096,-2.98305 5.91281,-3.17823 2.28185,-0.19519 5.13299,0.56878 7.3373,1.76583 2.20431,1.19705 3.86137,2.85411 5.5754,5.21683 1.71402,2.36273 3.48739,5.43429 4.54058,7.63851 1.0532,2.20421 1.3877,3.54402 1.72179,4.88219"
       style="fill:none;stroke:#81d4f9;stroke-width:2.25;stroke-linecap:butt;stroke-linejoin:miter;stroke-miterlimit:4;stroke-dasharray:none;stroke-opacity:1" /><g
       transform="translate(-8.8282463,-13.872959)"
       id="g1540"
       style="stroke:#81d4f9;stroke-opacity:1"><path
         style="fill:none;stroke:#81d4f9;stroke-width:2.25;stroke-linecap:butt;stroke-linejoin:miter;stroke-miterlimit:4;stroke-dasharray:none;stroke-opacity:1"
         d="m 356.04618,642.53294 c 21.47797,0 42.95518,0 64.43165,0"
         id="path1423" /><circle
         style="opacity:1;fill:#81d4f9;fill-opacity:1;stroke:#81d4f9;stroke-width:2.25;stroke-miterlimit:4;stroke-dasharray:none;stroke-opacity:1"
         id="path1427"
         cx="376.02179"
         cy="-610.36798"
         r="4.6818848"
         transform="scale(1,-1)" /><circle
         style="opacity:1;fill:#81d4f9;fill-opacity:1;stroke:#81d4f9;stroke-width:2.25;stroke-miterlimit:4;stroke-dasharray:none;stroke-opacity:1"
         id="path1427-0"
         cx="365.02179"
         cy="-610.36798"
         r="4.6818848"
         transform="scale(1,-1)" /><circle
         style="opacity:1;fill:#81d4f9;fill-opacity:1;stroke:#81d4f9;stroke-width:2.25;stroke-miterlimit:4;stroke-dasharray:none;stroke-opacity:1"
         id="path1427-0-0"
         cx="387.02182"
         cy="-610.36798"
         r="4.6818848"
         transform="scale(1,-1)" /><circle
         style="opacity:1;fill:#81d4f9;fill-opacity:1;stroke:#81d4f9;stroke-width:2.25;stroke-miterlimit:4;stroke-dasharray:none;stroke-opacity:1"
         id="path1427-0-0-4"
         cx="398.02182"
         cy="-610.36798"
         r="4.6818848"
         transform="scale(1,-1)" /><circle
         style="opacity:1;fill:#81d4f9;fill-opacity:1;stroke:#81d4f9;stroke-width:2.25;stroke-miterlimit:4;stroke-dasharray:none;stroke-opacity:1"
         id="path1427-0-0-4-6"
         cx="419.58606"
         cy="-615.33344"
         r="4.6818848"
         transform="scale(1,-1)" /><path
         style="fill:none;stroke:#81d4f9;stroke-width:1.5;stroke-linecap:butt;stroke-linejoin:miter;stroke-miterlimit:4;stroke-dasharray:none;stroke-opacity:1"
         d="m 365.187,610.42859 c 0,10.62788 0,21.25502 0,31.8814"
         id="path1489" /><path
         style="fill:none;stroke:#81d4f9;stroke-width:1.5;stroke-linecap:butt;stroke-linejoin:miter;stroke-miterlimit:4;stroke-dasharray:none;stroke-opacity:1"
         d="m 376.1114,609.75974 c 0,10.85084 0,21.70092 0,32.55025"
         id="path1493" /><path
         style="fill:none;stroke:#81d4f9;stroke-width:1.5;stroke-linecap:butt;stroke-linejoin:miter;stroke-miterlimit:4;stroke-dasharray:none;stroke-opacity:1"
         d="m 386.81285,610.20564 c 0,10.7022 0,21.40365 0,32.10435"
         id="path1497" /><path
         style="fill:none;stroke:#81d4f9;stroke-width:1.5;stroke-linecap:butt;stroke-linejoin:miter;stroke-miterlimit:4;stroke-dasharray:none;stroke-opacity:1"
         d="m 397.73725,610.65153 c 0,10.55357 0,21.10639 0,31.65846"
         id="path1501" /><path
         transform="rotate(26.810205,399.94943,658.57727)"
         style="fill:none;stroke:#81d4f9;stroke-width:1.5;stroke-linecap:butt;stroke-linejoin:miter;stroke-miterlimit:4;stroke-dasharray:none;stroke-opacity:1"
         d="m 397.73725,610.65153 c 0,10.55357 0,21.10639 0,31.65846"
         id="path1501-6" /></g></g></svg>
