<?xml version="1.0" encoding="UTF-8" standalone="no"?>
<!-- Created with Inkscape (http://www.inkscape.org/) -->

<svg
   width="8.6124077mm"
   height="7.9895554mm"
   viewBox="0 0 8.6124077 7.9895554"
   version="1.1"
   id="svg1947"
   xmlns="http://www.w3.org/2000/svg"
   xmlns:svg="http://www.w3.org/2000/svg">
  <defs
     id="defs1944" />
  <g
     id="layer1"
     transform="translate(-75.324231,-84.244357)"
     style="fill:#ff9e01;fill-opacity:1">
    <g
       id="g2182"
       style="fill:#ff9e01;fill-opacity:1">
      <g
         id="g1454"
         transform="matrix(0.35277777,0,0,-0.35277777,81.362961,90.130658)"
         style="fill:#ff9e01;fill-opacity:1">
        <path
           d="m 0,0 c -1.403,-0.252 -2.832,-0.35 -4.253,-0.318 -1.422,0.026 -2.839,0.178 -4.215,0.479 -1.312,0.286 -2.586,0.734 -3.735,1.345 0.051,0.243 0.108,0.485 0.171,0.724 0.176,0.666 0.398,1.319 0.653,1.957 0.507,1.279 1.151,2.503 1.897,3.655 0.741,1.156 1.582,2.245 2.515,3.235 0.892,0.947 1.894,1.786 2.966,2.462 0.175,-0.148 0.347,-0.3 0.516,-0.456 0.51,-0.47 0.991,-0.971 1.441,-1.498 C -1.139,10.536 -0.34,9.396 0.345,8.195 1.038,6.999 1.622,5.744 2.068,4.451 2.484,3.246 2.755,1.994 2.841,0.76 1.922,0.418 0.965,0.173 0,0 M 7.246,4.157 C 7.205,4.175 7.156,4.156 7.138,4.115 V 4.114 C 6.851,3.459 6.379,2.907 5.844,2.444 5.389,2.052 4.883,1.722 4.353,1.437 4.125,2.644 3.747,3.799 3.302,4.912 2.753,6.268 2.068,7.557 1.277,8.77 0.48,9.979 -0.428,11.112 -1.44,12.144 c -0.507,0.514 -1.044,0.999 -1.608,1.449 -0.125,0.1 -0.251,0.197 -0.379,0.293 l 0.208,0.118 0.217,0.113 c 0.286,0.155 0.579,0.286 0.87,0.415 l 0.22,0.087 0.11,0.044 c 0.037,0.014 0.074,0.026 0.111,0.039 l 0.221,0.078 0.221,0.067 0.111,0.034 0.11,0.027 0.222,0.054 c 0.147,0.026 0.295,0.06 0.44,0.073 0.147,0.024 0.29,0.027 0.435,0.037 l 0.214,-0.004 c 0.017,0 0.036,0.001 0.053,-10e-4 l 0.052,-0.005 c 0.035,-0.004 0.07,-0.007 0.105,-0.01 0.278,-0.027 0.547,-0.09 0.801,-0.192 0.253,-0.106 0.488,-0.252 0.708,-0.431 L 2.163,14.287 C 2.212,14.234 2.26,14.181 2.312,14.128 2.339,14.103 2.361,14.074 2.384,14.044 L 2.453,13.957 C 2.476,13.928 2.501,13.9 2.523,13.869 L 2.586,13.774 2.649,13.68 2.681,13.632 2.71,13.582 2.827,13.379 c 0.035,-0.07 0.068,-0.143 0.102,-0.214 0.017,-0.036 0.036,-0.071 0.052,-0.108 l 0.045,-0.112 c 0.127,-0.297 0.22,-0.616 0.305,-0.941 0.058,-0.235 0.105,-0.475 0.146,-0.718 -0.333,-0.12 -0.571,-0.437 -0.571,-0.811 0,-0.476 0.386,-0.862 0.862,-0.862 0.475,0 0.862,0.386 0.862,0.862 0,0.379 -0.245,0.7 -0.585,0.815 0.007,0.085 0.011,0.169 0.018,0.254 0.016,0.183 0.012,0.367 0.015,0.553 -0.011,0.37 -0.037,0.747 -0.117,1.122 L 3.934,13.36 C 3.925,13.408 3.91,13.455 3.898,13.501 3.872,13.594 3.848,13.689 3.82,13.782 l -0.098,0.279 -0.025,0.07 -0.03,0.068 -0.063,0.137 C 3.435,14.699 3.222,15.057 2.935,15.366 2.653,15.68 2.315,15.95 1.941,16.162 1.183,16.579 0.305,16.729 -0.506,16.675 -0.711,16.667 -0.909,16.636 -1.11,16.611 -1.209,16.594 -1.306,16.573 -1.404,16.554 L -1.55,16.524 -1.694,16.487 C -1.789,16.462 -1.885,16.438 -1.979,16.41 l -0.279,-0.092 c -0.045,-0.015 -0.092,-0.03 -0.138,-0.046 l -0.135,-0.053 -0.27,-0.107 c -0.351,-0.155 -0.695,-0.324 -1.02,-0.516 -0.082,-0.047 -0.163,-0.095 -0.244,-0.144 l -0.236,-0.153 c -0.159,-0.1 -0.311,-0.21 -0.464,-0.317 -0.052,-0.038 -0.103,-0.076 -0.154,-0.115 -0.601,0.338 -1.231,0.629 -1.889,0.839 -0.691,0.211 -1.416,0.339 -2.139,0.292 -0.041,-0.003 -0.075,-0.038 -0.076,-0.081 -10e-4,-0.045 0.035,-0.083 0.081,-0.084 v 0 c 0.696,-0.015 1.375,-0.197 2.016,-0.455 0.554,-0.227 1.082,-0.514 1.584,-0.84 -0.964,-0.778 -1.818,-1.66 -2.606,-2.583 -0.938,-1.106 -1.76,-2.298 -2.472,-3.549 -0.702,-1.256 -1.291,-2.574 -1.734,-3.941 -0.273,-0.861 -0.492,-1.742 -0.626,-2.636 -0.442,0.264 -0.857,0.557 -1.238,0.87 -0.244,0.208 -0.481,0.422 -0.681,0.655 -0.026,0.029 -0.053,0.056 -0.078,0.086 l -0.07,0.089 -0.071,0.088 -0.036,0.045 -0.032,0.045 -0.129,0.183 -0.111,0.188 c -0.144,0.252 -0.25,0.516 -0.314,0.787 -0.069,0.27 -0.086,0.552 -0.061,0.835 0.025,0.284 0.101,0.569 0.214,0.853 0.115,0.282 0.273,0.559 0.46,0.827 0.375,0.535 0.87,1.023 1.414,1.468 0.19,0.155 0.388,0.305 0.59,0.451 0.137,-0.093 0.302,-0.147 0.48,-0.147 0.476,0 0.862,0.386 0.862,0.862 0,0.476 -0.386,0.862 -0.862,0.862 -0.476,0 -0.862,-0.386 -0.862,-0.862 0,-0.084 0.013,-0.165 0.035,-0.241 -0.219,-0.089 -0.435,-0.185 -0.648,-0.291 -0.679,-0.341 -1.333,-0.775 -1.898,-1.353 -0.069,-0.073 -0.141,-0.145 -0.206,-0.224 -0.067,-0.077 -0.134,-0.155 -0.197,-0.237 -0.126,-0.164 -0.243,-0.338 -0.349,-0.522 -0.214,-0.366 -0.376,-0.777 -0.469,-1.212 -0.091,-0.435 -0.105,-0.892 -0.042,-1.338 0.064,-0.445 0.202,-0.875 0.389,-1.271 0.187,-0.398 0.433,-0.75 0.699,-1.075 0.266,-0.327 0.566,-0.609 0.877,-0.87 l 0.237,-0.19 c 0.08,-0.061 0.163,-0.117 0.244,-0.176 0.161,-0.121 0.331,-0.22 0.498,-0.329 0.084,-0.053 0.171,-0.098 0.257,-0.147 0.085,-0.047 0.17,-0.099 0.258,-0.142 0.175,-0.087 0.347,-0.181 0.525,-0.26 0.056,-0.025 0.113,-0.05 0.17,-0.075 -0.002,-0.301 0.01,-0.603 0.032,-0.903 0.033,-0.36 0.084,-0.717 0.162,-1.069 0.162,-0.701 0.432,-1.388 0.868,-1.963 0.025,-0.034 0.073,-0.043 0.109,-0.021 0.038,0.024 0.05,0.075 0.026,0.114 v 0.001 c -0.367,0.585 -0.564,1.256 -0.661,1.932 -0.046,0.34 -0.068,0.682 -0.071,1.025 0.001,0.227 0.008,0.455 0.023,0.682 1.215,-0.477 2.467,-0.78 3.721,-0.991 1.484,-0.247 2.983,-0.329 4.473,-0.281 1.488,0.059 2.97,0.255 4.416,0.608 0.721,0.18 1.433,0.403 2.126,0.672 0.192,0.074 0.384,0.152 0.573,0.234 C 2.883,-0.423 2.854,-0.939 2.789,-1.436 2.784,-1.475 2.78,-1.514 2.774,-1.553 L 2.753,-1.667 C 2.738,-1.743 2.728,-1.82 2.713,-1.895 2.678,-2.044 2.647,-2.195 2.603,-2.337 2.567,-2.485 2.511,-2.62 2.466,-2.76 2.407,-2.892 2.356,-3.03 2.286,-3.152 2.032,-3.663 1.656,-4.064 1.178,-4.34 1.058,-4.409 0.931,-4.466 0.798,-4.517 0.665,-4.566 0.527,-4.606 0.384,-4.64 0.096,-4.701 -0.209,-4.73 -0.524,-4.725 c -0.632,0.008 -1.291,0.14 -1.943,0.341 -0.317,0.097 -0.634,0.212 -0.949,0.339 0.019,0.069 0.03,0.142 0.03,0.218 0,0.475 -0.387,0.862 -0.862,0.862 -0.476,0 -0.862,-0.387 -0.862,-0.862 0,-0.476 0.386,-0.862 0.862,-0.862 0.221,0 0.423,0.084 0.575,0.221 0.286,-0.218 0.586,-0.42 0.902,-0.604 0.64,-0.371 1.347,-0.668 2.125,-0.81 0.193,-0.037 0.393,-0.057 0.594,-0.073 0.202,-0.011 0.407,-0.009 0.614,0.006 0.207,0.018 0.416,0.045 0.623,0.095 0.207,0.051 0.412,0.114 0.612,0.198 0.199,0.084 0.395,0.181 0.576,0.303 l 0.138,0.088 c 0.048,0.028 0.088,0.064 0.132,0.097 l 0.13,0.1 c 0.042,0.034 0.086,0.067 0.124,0.106 0.08,0.074 0.158,0.15 0.236,0.226 l 0.213,0.245 c 0.037,0.04 0.069,0.083 0.1,0.126 l 0.094,0.13 c 0.031,0.044 0.064,0.087 0.093,0.131 l 0.083,0.135 c 0.115,0.181 0.202,0.369 0.295,0.557 0.078,0.19 0.159,0.382 0.217,0.576 0.068,0.193 0.11,0.389 0.159,0.584 0.022,0.098 0.039,0.196 0.056,0.293 l 0.026,0.147 c 0.008,0.049 0.013,0.098 0.02,0.147 l 0.034,0.292 0.02,0.292 0.01,0.145 c 0.003,0.049 0.001,0.097 0.003,0.145 l 0.002,0.29 C 4.56,-0.405 4.552,-0.31 4.549,-0.214 4.544,-0.119 4.542,-0.023 4.534,0.072 L 4.51,0.356 4.497,0.498 4.48,0.638 C 4.468,0.731 4.456,0.822 4.442,0.914 5.032,1.279 5.592,1.697 6.083,2.19 6.344,2.457 6.584,2.745 6.792,3.056 6.999,3.367 7.172,3.703 7.291,4.055 7.305,4.095 7.285,4.14 7.246,4.157"
           style="fill:#ff9e01;fill-opacity:1;fill-rule:nonzero;stroke:none"
           id="path1456" />
      </g>
      <g
         id="g1458"
         transform="matrix(0.35277777,0,0,-0.35277777,78.809167,89.062906)"
         style="fill:#ff9e01;fill-opacity:1">
        <path
           d="M 0,0 C -0.176,-0.577 0.164,-1.535 0.429,-2.146 0.701,-2.184 0.977,-2.215 1.255,-2.243 L 0.18,0.013 C 0.142,0.092 0.025,0.084 0,0"
           style="fill:#ff9e01;fill-opacity:1;fill-rule:nonzero;stroke:none"
           id="path1460" />
      </g>
      <g
         id="g1462"
         transform="matrix(0.35277777,0,0,-0.35277777,78.117864,88.316146)"
         style="fill:#ff9e01;fill-opacity:1">
        <path
           d="m 0,0 c -0.071,0.144 -0.128,0.289 -0.174,0.433 -0.037,0.115 -0.065,0.231 -0.087,0.347 -0.378,-0.694 -0.71,-1.399 -0.99,-2.108 -0.242,-0.603 -0.442,-1.198 -0.596,-1.765 0.862,-0.39 1.798,-0.696 2.791,-0.913 C 1.309,-4.085 1.681,-4.154 2.059,-4.213 1.466,-2.999 0.398,-0.813 0,0"
           style="fill:#ff9e01;fill-opacity:1;fill-rule:nonzero;stroke:none"
           id="path1464" />
      </g>
      <g
         id="g1466"
         transform="matrix(0.35277777,0,0,-0.35277777,80.599409,88.376259)"
         style="fill:#ff9e01;fill-opacity:1">
        <path
           d="m 0,0 c 0,0.198 -0.161,0.359 -0.358,0.359 -0.198,0 -0.359,-0.161 -0.359,-0.359 0,-0.198 0.161,-0.358 0.359,-0.358 C -0.161,-0.358 0,-0.198 0,0"
           style="fill:#ff9e01;fill-opacity:1;fill-rule:nonzero;stroke:none"
           id="path1468" />
      </g>
      <g
         id="g1470"
         transform="matrix(0.35277777,0,0,-0.35277777,81.75913,88.67552)"
         style="fill:#ff9e01;fill-opacity:1">
        <path
           d="M 0,0 C -0.416,1.204 -0.968,2.405 -1.643,3.568 L -1.646,3.574 C -2.309,4.736 -3.076,5.824 -3.927,6.81 -4.333,7.285 -4.763,7.735 -5.21,8.152 -5.968,7.612 -6.69,6.98 -7.362,6.266 -7.688,5.921 -8.004,5.559 -8.311,5.183 c 1.562,0.314 2.874,-0.934 3.114,-1.696 0.329,-1.046 0.926,-1.07 1.434,-1.173 0.7,-0.149 0.991,-0.565 1.112,-0.886 0.071,-0.187 0.081,-0.39 0.044,-0.586 -0.116,-0.612 0.2,-0.843 0.307,-0.999 0.482,-0.593 0.562,-1.881 0.562,-1.908 0,-0.026 -0.059,-0.046 -0.08,0.045 -0.505,1.881 -1.086,1.959 -1.381,1.791 -0.295,-0.167 -0.626,-0.198 -0.626,-0.198 0,0 -1.623,0.13 -2.939,-0.01 -0.167,-0.018 -0.326,-0.093 -0.396,-0.245 -0.384,-0.832 0.03,-2.038 0.31,-2.683 0.491,-0.043 0.99,-0.069 1.496,-0.078 0.166,-0.004 0.334,-0.006 0.499,-0.006 1.218,0 2.415,0.104 3.555,0.308 0.685,0.123 1.335,0.28 1.943,0.467 C 0.525,-1.795 0.31,-0.899 0,0"
           style="fill:#ff9e01;fill-opacity:1;fill-rule:nonzero;stroke:none"
           id="path1472" />
      </g>
    </g>
  </g>
</svg>
